<svg width="512" height="512" viewBox="0 0 512 512" fill="none" xmlns="http://www.w3.org/2000/svg">
  <rect width="512" height="512" rx="128" fill="url(#g)"/>
  <path d="M120 276c0-72 56-132 132-132s140 60 140 132c0 78-60 136-140 136-62 0-116-33-132-92" stroke="#0f172a" stroke-width="26" stroke-linecap="round" stroke-linejoin="round"/>
  <path d="M144 296c0-56 46-104 108-104 74 0 116 56 116 116 0 40-20 72-52 92" stroke="#e0f2fe" stroke-width="22" stroke-linecap="round" stroke-linejoin="round"/>
  <path d="M188 304c0-40 32-76 80-76 54 0 84 40 84 84 0 44-30 80-74 84" stroke="#a7f3d0" stroke-width="18" stroke-linecap="round" stroke-linejoin="round"/>
  <circle cx="256" cy="224" r="18" fill="#0ea5e9"/>
  <defs>
    <linearGradient id="g" x1="80" y1="40" x2="420" y2="472" gradientUnits="userSpaceOnUse">
      <stop stop-color="#2563eb"/>
      <stop offset="1" stop-color="#10b981"/>
    </linearGradient>
  </defs>
</svg>
